# xmcd
#
# Track frame offsets: 
#        150
#        26658
#        45311
#        64250
#        84610
#        104807
#        119747
#        133292
#        147777
#        163407
#        188761
#        206518
#        221240
#        240217
#        258966
#        276894
#
# Disc length: 3924 seconds
#
# Revision: 4
# Processed by: cddbd v1.5.2PL0 Copyright (c) Steve Scherf et al.
# Submitted via: ExactAudioCopy v0.99pb4
#
DISCID=f90f5210
DTITLE=Various Artist - Remember These Hits Vol.2 [CD 1)
DYEAR=1999
DGENRE=Pop
TTITLE0=Boney M - Rasputin
TTITLE1=Laura Branigan - Self Control
TTITLE2=Gazebo - Masterpiece
TTITLE3=Alphaville - Sounds Like A Melody
TTITLE4=Nick Kamen - Each Time You Break My Heart
TTITLE5=Matt Bianco - Yeh Yeh
TTITLE6=Tony Orlando and Dawn - Knock Three Times
TTITLE7=Liverpool Express - You Are My Love
TTITLE8=Doobie Brothers - Long Train Runnin'
TTITLE9=Steve Forbert - Cellophane City
TTITLE10=Stories - Brother Louie
TTITLE11=Smokie - I'll Meet You At Midnight
TTITLE12=ELO - The Evil Woman
TTITLE13=Toto - Georgy Porgy
TTITLE14=Sharif Dean - Do You Love Me?
TTITLE15=Christopher Cross - Arthur's Theme
EXTD=
EXTT0=
EXTT1=
EXTT2=
EXTT3=
EXTT4=
EXTT5=
EXTT6=
EXTT7=
EXTT8=
EXTT9=
EXTT10=
EXTT11=
EXTT12=
EXTT13=
EXTT14=
EXTT15=
PLAYORDER=
